<svg width="150" height="28" viewBox="0 0 150 28" fill="none" xmlns="http://www.w3.org/2000/svg">
<path d="M64.3245 3.26666V21.7589H61.2999V20.0392C60.7789 20.6706 60.132 21.1441 59.359 21.4598C58.6029 21.7755 57.7627 21.9333 56.8385 21.9333C55.5446 21.9333 54.3767 21.6509 53.3349 21.086C52.3099 20.5211 51.5033 19.7236 50.9152 18.6935C50.327 17.6467 50.033 16.4505 50.033 15.1047C50.033 13.7589 50.327 12.5709 50.9152 11.5408C51.5033 10.5107 52.3099 9.71318 53.3349 9.14828C54.3767 8.58338 55.5446 8.30093 56.8385 8.30093C57.7291 8.30093 58.5441 8.45046 59.2834 8.74953C60.0228 9.04859 60.6529 9.49719 61.1738 10.0953V3.26666H64.3245ZM57.2166 19.2667C57.9727 19.2667 58.6533 19.1005 59.2582 18.7682C59.8631 18.4193 60.3421 17.9292 60.6949 17.2978C61.0478 16.6665 61.2242 15.9354 61.2242 15.1047C61.2242 14.2739 61.0478 13.5429 60.6949 12.9115C60.3421 12.2802 59.8631 11.7983 59.2582 11.466C58.6533 11.1171 57.9727 10.9427 57.2166 10.9427C56.4604 10.9427 55.7798 11.1171 55.1749 11.466C54.57 11.7983 54.0911 12.2802 53.7382 12.9115C53.3853 13.5429 53.2089 14.2739 53.2089 15.1047C53.2089 15.9354 53.3853 16.6665 53.7382 17.2978C54.0911 17.9292 54.57 18.4193 55.1749 18.7682C55.7798 19.1005 56.4604 19.2667 57.2166 19.2667Z" fill="white"/>
<path d="M82.6118 15.1794C82.6118 15.3954 82.595 15.7028 82.5614 16.1016H72.0002C72.1851 17.0818 72.664 17.8627 73.437 18.4442C74.2267 19.0091 75.2013 19.2916 76.3608 19.2916C77.8395 19.2916 79.0578 18.8098 80.0156 17.8461L81.7044 19.7651C81.0995 20.4795 80.3349 21.0195 79.4107 21.385C78.4865 21.7506 77.4446 21.9333 76.2852 21.9333C74.8065 21.9333 73.5042 21.6426 72.3783 21.0611C71.2525 20.4795 70.3787 19.6737 69.7569 18.6436C69.152 17.5969 68.8495 16.4172 68.8495 15.1047C68.8495 13.8087 69.1436 12.6457 69.7317 11.6156C70.3367 10.5688 71.1684 9.75472 72.2271 9.17321C73.2857 8.59169 74.4788 8.30093 75.8063 8.30093C77.117 8.30093 78.2848 8.59169 79.3099 9.17321C80.3517 9.73811 81.1583 10.5439 81.7296 11.5906C82.3177 12.6208 82.6118 13.817 82.6118 15.1794ZM75.8063 10.7931C74.7981 10.7931 73.9411 11.0922 73.2353 11.6903C72.5464 12.2719 72.1263 13.0527 71.975 14.033H79.6123C79.4779 13.0694 79.0662 12.2885 78.3773 11.6903C77.6883 11.0922 76.8313 10.7931 75.8063 10.7931Z" fill="white"/>
<path d="M91.3095 21.9333C90.2173 21.9333 89.1502 21.7921 88.1084 21.5097C87.0666 21.2272 86.2348 20.87 85.613 20.438L86.8229 18.0704C87.4278 18.4692 88.1504 18.7931 88.9906 19.0424C89.8476 19.275 90.6878 19.3913 91.5111 19.3913C93.3932 19.3913 94.3342 18.9011 94.3342 17.9209C94.3342 17.4557 94.0905 17.1317 93.6032 16.9489C93.1327 16.7661 92.3681 16.5917 91.3095 16.4255C90.2004 16.2594 89.293 16.0683 88.5873 15.8523C87.8983 15.6363 87.2934 15.2625 86.7725 14.7308C86.2684 14.1826 86.0163 13.4266 86.0163 12.4629C86.0163 11.2002 86.5456 10.195 87.6043 9.44735C88.6797 8.68307 90.1248 8.30093 91.9396 8.30093C92.8638 8.30093 93.788 8.40893 94.7123 8.62492C95.6365 8.8243 96.3926 9.09844 96.9808 9.44735L95.7709 11.815C94.6282 11.1504 93.3427 10.8181 91.9144 10.8181C90.9902 10.8181 90.2845 10.9593 89.7972 11.2417C89.3267 11.5076 89.0914 11.8648 89.0914 12.3134C89.0914 12.8118 89.3435 13.1691 89.8476 13.385C90.3685 13.5844 91.1667 13.7755 92.2421 13.9583C93.3175 14.1244 94.1997 14.3155 94.8887 14.5315C95.5776 14.7475 96.1658 15.113 96.6531 15.628C97.1572 16.1431 97.4093 16.8741 97.4093 17.8212C97.4093 19.0673 96.8631 20.0642 95.7709 20.8118C94.6786 21.5595 93.1915 21.9333 91.3095 21.9333Z" fill="white"/>
<path d="M114.817 3.26666V21.7589H111.793V20.0392C111.272 20.6706 110.625 21.1441 109.852 21.4598C109.096 21.7755 108.256 21.9333 107.331 21.9333C106.038 21.9333 104.87 21.6509 103.828 21.086C102.803 20.5211 101.996 19.7236 101.408 18.6935C100.82 17.6467 100.526 16.4505 100.526 15.1047C100.526 13.7589 100.82 12.5709 101.408 11.5408C101.996 10.5107 102.803 9.71318 103.828 9.14828C104.87 8.58338 106.038 8.30093 107.331 8.30093C108.222 8.30093 109.037 8.45046 109.776 8.74953C110.516 9.04859 111.146 9.49719 111.667 10.0953V3.26666H114.817ZM107.709 19.2667C108.466 19.2667 109.146 19.1005 109.751 18.7682C110.356 18.4193 110.835 17.9292 111.188 17.2978C111.541 16.6665 111.717 15.9354 111.717 15.1047C111.717 14.2739 111.541 13.5429 111.188 12.9115C110.835 12.2802 110.356 11.7983 109.751 11.466C109.146 11.1171 108.466 10.9427 107.709 10.9427C106.953 10.9427 106.273 11.1171 105.668 11.466C105.063 11.7983 104.584 12.2802 104.231 12.9115C103.878 13.5429 103.702 14.2739 103.702 15.1047C103.702 15.9354 103.878 16.6665 104.231 17.2978C104.584 17.9292 105.063 18.4193 105.668 18.7682C106.273 19.1005 106.953 19.2667 107.709 19.2667Z" fill="white"/>
<path d="M133.105 15.1794C133.105 15.3954 133.088 15.7028 133.054 16.1016H122.493C122.678 17.0818 123.157 17.8627 123.93 18.4442C124.72 19.0091 125.694 19.2916 126.854 19.2916C128.332 19.2916 129.551 18.8098 130.509 17.8461L132.197 19.7651C131.592 20.4795 130.828 21.0195 129.904 21.385C128.979 21.7506 127.938 21.9333 126.778 21.9333C125.299 21.9333 123.997 21.6426 122.871 21.0611C121.745 20.4795 120.872 19.6737 120.25 18.6436C119.645 17.5969 119.342 16.4172 119.342 15.1047C119.342 13.8087 119.637 12.6457 120.225 11.6156C120.83 10.5688 121.661 9.75472 122.72 9.17321C123.779 8.59169 124.972 8.30093 126.299 8.30093C127.61 8.30093 128.778 8.59169 129.803 9.17321C130.845 9.73811 131.651 10.5439 132.223 11.5906C132.811 12.6208 133.105 13.817 133.105 15.1794ZM126.299 10.7931C125.291 10.7931 124.434 11.0922 123.728 11.6903C123.039 12.2719 122.619 13.0527 122.468 14.033H130.105C129.971 13.0694 129.559 12.2885 128.87 11.6903C128.181 11.0922 127.324 10.7931 126.299 10.7931Z" fill="white"/>
<path d="M150 8.45046L144.228 21.7589H140.977L135.204 8.45046H138.481L142.665 18.3196L146.975 8.45046H150Z" fill="white"/>
<g clip-path="url(#clip0)">
<path d="M24.3871 0L8.12915 28H16.2581L32.5161 0H24.3871Z" fill="#C1C1C1"/>
<path d="M12.1936 20.9987L16.2581 28L14.0038 17.8821L12.1936 20.9987Z" fill="#A0A0A0"/>
<path d="M16.2579 0L8.12897 14H0L8.12897 0H16.2579Z" fill="white"/>
<path d="M0 14L8.12897 28H16.2579L8.12897 14H0Z" fill="#E8E8E8"/>
<path d="M24.3867 0L32.5157 14H40.6447L32.5157 0H24.3867Z" fill="white"/>
<path d="M40.6447 14L32.5157 28H24.3867L32.5157 14H40.6447Z" fill="#E8E8E8"/>
<path d="M28.4512 6.99869L24.3867 0L26.641 10.1179L28.4512 6.99869Z" fill="#A0A0A0"/>
</g>
<defs>
<clipPath id="clip0">
<rect width="40.6449" height="28" fill="white"/>
</clipPath>
</defs>
</svg>
